<svg id="svg" version="1.1" viewBox="0 0 300 298.2352941176471" width="300" height="298.2352941176471" xmlns="http://www.w3.org/2000/svg"><svg xmlns="http://www.w3.org/2000/svg"><defs><clipPath id="clip-1"><rect x="0" y="0" transform="scale(0.22059,0.22059)" width="1360" height="1352" fill="none"/></clipPath><linearGradient x1="177.82853" y1="294.44118" x2="122.91353" y2="2.91646" gradientUnits="userSpaceOnUse" id="color-1"><stop offset="0" stop-color="#afa697"/><stop offset="1" stop-color="#cac4b9"/></linearGradient><linearGradient x1="34.71551" y1="206.98324" x2="116.75272" y2="-0.77735" gradientUnits="userSpaceOnUse" id="color-2"><stop offset="0" stop-color="#676057"/><stop offset="1" stop-color="#958f84"/></linearGradient><linearGradient x1="83.78316" y1="206.44213" x2="213.47206" y2="75.60706" gradientUnits="userSpaceOnUse" id="color-3"><stop offset="0" stop-color="#ada797"/><stop offset="1" stop-color="#d3ccc0"/></linearGradient><linearGradient x1="70.86331" y1="195.37809" x2="141.47801" y2="158.48007" gradientUnits="userSpaceOnUse" id="color-4"><stop offset="0" stop-color="#5b554c"/><stop offset="1" stop-color="#908a7f"/></linearGradient><linearGradient x1="178.41176" y1="65.57934" x2="187.74485" y2="48.56824" gradientUnits="userSpaceOnUse" id="color-5"><stop offset="0" stop-color="#7b7273"/><stop offset="1" stop-color="#a09b90"/></linearGradient><linearGradient x1="231.78309" y1="238.39853" x2="236.00515" y2="238.70735" gradientUnits="userSpaceOnUse" id="color-6"><stop offset="0" stop-color="#897b6a"/><stop offset="1" stop-color="#9d9585"/></linearGradient></defs><g clip-path="url(#clip-1)" fill="none" fill-rule="nonzero" stroke="none" stroke-width="1" stroke-linecap="butt" stroke-linejoin="miter" stroke-miterlimit="10" stroke-dasharray="" stroke-dashoffset="0" font-family="none" font-weight="none" font-size="none" text-anchor="none" style="mix-blend-mode: normal"><path d="M144.58147,0h7.81544c5.025,0.76032 12.18794,0.95003 17.67772,1.6025c3.59338,0.83878 7.39279,1.24984 10.93147,2.06972c7.98485,1.85005 16.07294,4.46043 23.82971,7.10091c5.62456,1.91462 6.48485,4.2317 13.09566,2.14747c5.71191,-0.54792 10.14574,3.3851 14.97662,5.78532c0.06838,0.06333 0.13897,0.12666 0.20956,0.18999c6.40588,4.39136 12.76985,9.10511 18.45441,14.44864c17.84559,16.54191 31.6125,36.99926 40.21324,59.76287c2.56544,6.83757 4.62574,11.71257 4.23088,19.14199c-0.02868,3.17801 0.08382,4.51743 0.68603,7.63566c0.94632,5.83743 1.83309,10.46294 2.31618,16.43713c0.225,2.77654 0.49412,8.74566 0.98162,11.1364v10.64029c-0.90221,2.96801 -1.12941,11.98125 -1.71618,15.77382c-5.88309,37.63456 -26.4375,71.40596 -57.16324,93.91699c-35.8286,26.18162 -79.60632,34.45368 -122.86037,26.76176c-4.49934,-0.80074 -9.39706,-2.33603 -13.78699,-3.68824c-29.90757,-9.21838 -57.75441,-28.57279 -76.09544,-53.81471c-17.94807,-24.4939 -27.76448,-53.99846 -28.06798,-84.36243c-0.04413,-3.72287 0.27843,-7.93941 0.54586,-11.69779c0.37896,-5.32588 0.29811,-11.63338 1.11813,-16.86684c0.06967,-1.84169 0.91423,-7.11375 1.24926,-8.89368c5.40355,-29.85441 19.90871,-57.30684 41.52679,-78.59382c4.91294,-4.8964 10.26353,-9.89471 15.98382,-13.84169c5.42404,-3.74296 7.43603,-4.04495 13.53596,-2.88223l1.22426,-0.07308c2.39228,-0.94376 5.33978,-3.39904 7.41993,-4.33732c4.78125,-2.15671 10.3425,-4.51112 15.25897,-6.26965c10.185,-3.61549 20.71699,-6.16621 31.42765,-7.61139c4.42456,-0.57559 11.00007,-0.81275 14.98103,-1.61861z" fill="url(#color-1)"/><path d="M94.27257,30.48044c3.0225,-1.55625 7.59706,-3.18684 10.82007,-4.45919c15.4939,-6.11711 32.26632,-8.6925 48.88544,-8.00885c1.69853,0.06986 12.35912,0.08702 13.08397,1.28338c-0.86051,0.14762 -1.37449,-0.03637 -2.20985,-0.10749c-8.42382,-0.71711 -17.4075,-0.96185 -25.83838,-0.31359c-36.24507,3.01688 -69.27221,21.9939 -90.13125,51.78854c-9.90397,13.99809 -16.30875,29.48316 -19.38596,46.34757c-0.33507,1.83662 -1.15897,4.48831 -1.27676,6.23846c-0.79522,12.34015 -2.44147,24.63419 0.045,36.91147c1.96368,9.69507 4.95176,20.42449 8.96537,29.50699c3.55566,8.0464 9.36463,16.91074 14.60647,23.88265l-1.02265,0.31169c-0.29978,-0.20096 -1.2439,-1.17507 -1.55625,-1.48324c-1.68772,-2.38963 -3.49324,-4.77088 -4.98022,-7.28338c-1.11949,-2.38544 -3.00243,-4.92684 -4.30279,-7.41c-5.07993,-9.69926 -8.86324,-19.13912 -11.34463,-29.81868c-0.94169,-4.19779 -1.73096,-8.42868 -2.36603,-12.6836c-0.52169,-3.68426 -0.67279,-7.34625 -1.78897,-10.90368c-1.79757,-5.72824 -8.11791,-5.42757 -9.04992,-11.62213c-0.07604,-2.99801 -1.23243,-10.59331 -0.83276,-13.00434c-0.47312,1.42059 -1.29165,4.07912 -1.5671,5.51493c-0.19293,1.61801 -0.0358,2.1225 -0.08654,3.53691c0.23126,0.95471 0.59881,2.92676 0.27362,3.82037c-0.4466,0.33618 -0.61897,0.43257 -1.19252,0.36221c-1.91303,-0.23515 -8.40364,-4.44618 -9.4584,-3.73588c-0.1476,0.09926 -0.21494,0.18728 -0.32852,0.31346l-0.19359,-0.11757c-0.06018,-2.16728 0.17903,-2.78316 -0.06561,-5.22596c0.06967,-1.84169 0.91423,-7.11375 1.24926,-8.89368c5.40355,-29.85441 19.90871,-57.30684 41.52679,-78.59382c4.91294,-4.8964 10.26353,-9.89471 15.98382,-13.84169c5.42404,-3.74296 7.43603,-4.04495 13.53596,-2.88223l1.22426,-0.07308c0.61676,0.67187 12.6589,5.51259 14.04882,5.69435c1.31691,0.28434 2.78713,0.38118 3.51353,1.47022c0.22125,1.43493 -1.00324,1.74243 -0.97301,3.04632c0.72794,0.52632 1.18456,0.39662 2.18934,0.43257z" fill="url(#color-2)"/><path d="M1.9738,124.12147c0.06967,-1.84169 0.91423,-7.11375 1.24926,-8.89368c5.40355,-29.85441 19.90871,-57.30684 41.52679,-78.59382c4.91294,-4.8964 10.26353,-9.89471 15.98382,-13.84169c5.42404,-3.74296 7.43603,-4.04495 13.53596,-2.88223c0.69243,1.68609 3.17691,2.78649 4.81897,3.77914c-2.22949,2.655 -6.69176,4.94029 -9.78596,7.1036c-3.33176,2.37088 -6.55081,4.89596 -9.64699,7.56728c-20.11588,17.25154 -34.62816,40.11199 -41.68026,65.65699c-1.31539,4.72324 -2.48623,10.80419 -3.38294,15.63596c-0.47312,1.42059 -1.29165,4.07912 -1.5671,5.51493c-0.19293,1.61801 -0.0358,2.1225 -0.08654,3.53691c0.23126,0.95471 0.59881,2.92676 0.27362,3.82037c-0.4466,0.33618 -0.61897,0.43257 -1.19252,0.36221c-1.91303,-0.23515 -8.40364,-4.44618 -9.4584,-3.73588c-0.1476,0.09926 -0.21494,0.18728 -0.32852,0.31346l-0.19359,-0.11757c-0.06018,-2.16728 0.17903,-2.78316 -0.06561,-5.22596z" fill="#d0c9bc"/><path d="M89.54272,25.53132c1.31691,0.28434 2.78713,0.38118 3.51353,1.47022c0.22125,1.43493 -1.00324,1.74243 -0.97301,3.04632c0.72794,0.52632 1.18456,0.39662 2.18934,0.43257c-2.33162,0.94015 -5.34529,0.06816 -5.55066,-2.79882c0.53515,-0.83625 0.78221,-1.12985 0.82081,-2.15029z" fill="#a8a398"/><path d="M43.69324,218.21956c0.65029,-1.2214 2.04463,-1.28559 2.49684,-2.17037c-0.87309,-0.70368 -1.96765,-0.43588 -2.99272,-0.90265c-1.52735,-0.69574 -5.69051,-3.12419 -7.17132,-2.9325l-0.045,0.48088c-0.55059,-0.01787 -0.72485,0.01831 -1.24985,0.19015c0.29801,-0.33618 0.51618,-0.49721 0.65647,-0.89779c-1.31934,-0.33221 -2.2575,-2.72426 -1.40382,-3.89978c2.34,-3.22257 4.51478,1.4014 7.14816,0.7875c0.14096,-0.36353 0.25257,-0.62537 0.41735,-0.97853l-0.50404,-0.18088c0.69022,-0.21353 0.97632,-0.02449 1.83529,-0.34787c0.32382,-0.70809 0.17603,-0.64346 -0.06926,-1.53485l0.61919,0.24088l-0.60838,-0.14382c0.00221,0.00618 0.66838,0.19147 1.23772,0.57618c-0.20603,0.78551 -1.82846,1.35904 -2.07463,2.20412l0.51926,0.08404c1.17949,-0.74007 1.61096,-0.55235 2.6636,-1.2225c0.06772,-1.12919 -1.60963,-1.27831 -0.89051,-2.47632c1.48699,2.5125 3.2925,4.89375 4.98022,7.28338c0.16632,0.40169 0.54441,1.07051 0.42088,1.37713c-0.58257,-0.71625 -1.155,-1.40735 -1.69522,-2.15691c-0.00441,1.29772 2.4461,2.83235 1.57346,4.03875c-1.6961,0.63287 -4.50331,2.14941 -5.86368,2.58176z" fill="#d0c9bc"/><path d="M44.25794,209.58529c0.62382,-0.05074 0.59846,-0.06904 1.17618,0.14691c1.40382,1.45743 3.00132,2.94882 3.33772,5.01176c-0.23316,0.735 -0.04676,0.49037 -0.70809,0.91191c-0.97743,0.13919 -3.08537,-0.47096 -4.05088,-0.80603c-1.66103,-0.89074 -5.26809,-2.00757 -5.69537,-2.71103c1.15985,-1.2236 3.47471,-0.34809 4.2214,-0.97919c0.03243,-0.36132 0.03154,-0.69596 -0.00551,-1.05838c0.61478,-0.44912 0.96662,-0.42199 1.72456,-0.51596z" fill="#f4eddc"/><path d="M296.70221,119.88507c-0.99485,-1.14971 -0.60882,-2.26059 -1.09191,-2.57029c-0.20735,0.18044 -1.71397,1.74949 -1.68309,1.73669c-1.78897,0.72794 -3.16985,2.58088 -4.65221,3.69265c-3.01544,2.26324 -5.19706,4.23816 -7.65,7.09566l-0.19632,-0.18441c0.28676,-0.78176 3.06176,-3.47978 3.69926,-4.21279c-1.54412,-0.40853 -1.24853,-1.02507 -2.19265,-1.20176c-1.35662,1.12346 -1.31029,3.44118 -2.31397,5.04022l-0.14338,-0.27132c1.44706,-4.90081 2.89412,-5.83279 6.26691,-9.5314c2.03603,-2.23279 2.9625,-4.7389 5.99559,-5.95721l0.19853,0.16478c-0.48971,0.28478 -0.59779,0.23493 -0.82059,0.65801c0.58015,0.61125 0.3,0.48838 1.04559,0.5936c1.70074,-0.55169 2.11324,-1.22471 2.85221,-2.68809c-0.02868,3.17801 0.08382,4.51743 0.68603,7.63566z" fill="#7f7365"/><path d="M85.51279,243.53382c5.34904,2.59632 11.71279,6.14559 16.93743,8.43529c15.09463,6.47206 31.30169,9.95735 47.72316,10.25735c3.89537,0.07279 7.90963,-0.19853 11.81471,-0.33309l0.01941,0.14118c-1.15941,0.25588 -4.78699,0.31324 -6.22037,0.36618c-14.29412,0.41691 -28.55603,-1.57941 -42.18706,-5.90294c-3.5389,-1.12279 -8.03184,-2.83015 -11.63118,-4.25735c-0.49191,-0.19632 -4.38574,2.4 -5.23324,1.80441c-0.81882,-0.57574 -1.56397,-2.39118 -1.69478,-2.48824c-0.94015,-0.69265 -1.75478,-0.74559 -2.50059,-1.96544c0.2036,-0.43235 0.20824,-0.39926 0.60221,-0.68162c-0.18066,-1.60809 -4.34956,-3.63971 -5.81294,-4.03676c-1.26088,-0.34191 -0.97346,-0.54485 -1.81059,-1.17574z" fill="#8e8675"/><path d="M83.01463,243.51838l0.61412,0.11691c2.41699,1.56397 5.29015,5.23676 5.61882,8.00515c0.48485,4.08088 0.25125,4.54853 3.97676,7.20441c2.67353,1.90809 5.76265,2.37132 8.77257,3.50294c9.10301,4.09853 18.55853,6.25368 28.38331,7.77132c2.62522,0.40588 5.39007,0.03088 8.04397,0.1875c11.08368,0.98382 22.30279,0.44779 33.3011,-1.16691c0.9536,-0.14118 3.16301,-0.71691 4.10294,-0.34412c-12.39463,2.14632 -24.99794,2.83676 -37.55294,2.05588c-2.21338,-0.11471 -4.52471,0.05294 -6.70257,-0.23382c-9.0236,-1.19338 -16.60169,-3.225 -25.22735,-5.96471c-2.17081,-1.21544 -5.56213,-2.40882 -8.04154,-2.66691c-3.14559,-1.81985 -5.79838,-2.44853 -8.54316,-5.55221c-2.45096,-2.77279 -2.34971,-4.51324 -2.20699,-7.93015c-1.80662,-2.75956 -2.13419,-2.91618 -4.53904,-4.98529z" fill="#8e8675"/><path d="M28.62044,214.6489c-0.66949,-1.16868 -0.97125,-1.87037 -0.37566,-3.0836c0.70963,-0.42441 0.37985,-0.33904 1.27765,-0.25743l-0.02162,0.17868l-1.20993,0.79654c-0.09507,0.75331 0.35625,1.47463 0.63353,2.34485c0.30154,0.16191 0.33485,0.28434 0.65294,0.13522c1.3789,-0.64676 2.7161,-3.18507 2.20368,-4.65353c-0.1136,-0.32537 -0.16875,-0.27353 -0.09132,-0.64301l0.22434,0.00132c0.62184,1.56088 0.3836,4.13691 1.95441,4.82162c0.10257,-0.04147 0.96728,-0.38316 1.06676,-0.38096c1.9714,0.04324 4.65463,3.41404 6.74471,4.27301c1.18213,0.48574 0.86118,0.35449 2.01331,0.03794c-0.39221,0.55963 -0.77779,0.76169 -1.40426,0.8925c-2.06647,-1.52184 -4.31029,-2.62081 -6.10897,-4.34934c-0.36838,-0.35404 -0.98449,-0.49676 -1.51699,-0.45441l-0.30287,0.42331c0.28346,0.80735 0.69441,0.9461 1.42897,1.575c0.1125,0.58169 -0.41382,1.07184 -0.83978,1.71684c-0.03529,1.80485 1.55029,3.1714 0.44934,4.79713c-0.15309,-0.21618 -0.20912,-0.28897 -0.39772,-0.47426c-2.05103,-2.0025 -4.82801,-5.3014 -6.38051,-7.69743z" fill="#d0c9bc"/><path d="M13.02536,125.16794c0.27545,-1.43581 1.09399,-4.09434 1.5671,-5.51493c-0.39966,2.41103 0.75673,10.00632 0.83276,13.00434c-0.69165,-1.62596 -0.86113,-3.79588 -1.0258,-5.59743c-0.24816,1.61449 -0.06172,5.68213 -0.70564,6.1639c-2.23538,1.6725 -7.98026,-3.01147 -10.46561,-3.36221l-0.34458,0.36507c0.10412,2.41191 5.223,3.94897 7.20309,6.69066l-0.1637,0.16279c-0.60053,-0.28853 -1.85433,-1.64493 -2.56204,-2.09051c-1.24831,-0.82257 -2.62346,-1.43846 -3.87267,-2.26081c-0.73332,-0.48265 -0.80195,-0.69331 -0.94213,-1.52912c-0.09677,-0.57684 -0.21534,-1.16206 -0.31315,-1.73471c0.11358,-0.12618 0.18093,-0.21419 0.32852,-0.31346c1.05476,-0.71029 7.54538,3.50074 9.4584,3.73588c0.57355,0.07037 0.74592,-0.02603 1.19252,-0.36221c0.32519,-0.8936 -0.04235,-2.86566 -0.27362,-3.82037c0.05074,-1.41441 -0.10639,-1.9189 0.08654,-3.53691z" fill="#a8a398"/><path d="M51.83669,213.55037c6.20515,8.3636 13.28581,15.57463 21.51574,21.95625c1.7325,1.34338 4.36301,3.46324 6.27397,4.48015l-1.06897,0.24706c-8.13728,-5.73529 -15.58963,-12.38603 -22.21103,-19.82007c-1.81125,-1.9961 -4.00897,-4.37934 -5.53235,-6.55169z" fill="#4c4743"/><path d="M98.30382,261.98603c2.47941,0.25809 5.87074,1.45147 8.04154,2.66691c-3.34125,0.20294 -5.47985,-0.46324 -8.04154,-2.66691z" fill="#a8a398"/><path d="M79.6264,239.98676l5.8864,3.54706l0.00618,0.16324c-0.29956,-0.10588 -1.50353,-0.06397 -1.89022,-0.06176l-0.61412,-0.11691c-1.2386,-1.09853 -3.02713,-2.08456 -4.45721,-3.28456z" fill="#7f7365"/><path d="M138.0225,43.18875c1.92022,-0.59537 6.79809,-0.82699 9.00728,-0.92449c17.38147,-0.67743 34.63853,3.19368 50.06515,11.23081c9.88566,5.22419 21.15728,14.20456 28.47199,22.56397c4.35441,5.03625 8.2125,10.48213 11.51691,16.26132c23.46838,40.93103 12.56029,93.2914 -24.72882,121.99676c-5.73882,4.41772 -26.06206,16.13581 -32.76485,16.59022c-21.66971,5.61838 -43.18301,5.23676 -64.1711,-2.98897c-21.10522,-8.14522 -38.78162,-23.27801 -50.08301,-42.87551c-10.44684,-18.02426 -14.60449,-37.7411 -11.96118,-58.43537c0.61125,-4.78632 1.44485,-10.30456 3.22743,-14.80478c11.01463,-37.34625 42.86625,-63.89118 81.42022,-68.61397z" fill="url(#color-3)"/><path d="M189.94412,51.27551c1.10294,0.33949 2.22684,0.87816 3.26978,1.3789c11.98853,5.75625 22.99743,13.59904 31.80816,23.64728c7.3875,8.42713 12.57353,17.91882 16.89706,28.18456c-0.62868,0.96088 -0.46765,0.91081 -1.34338,1.24103c-0.9375,-0.09353 -1.99191,-0.56934 -2.86985,-0.94787c-2.31838,-0.99949 -5.05809,-1.52051 -7.16912,-2.93294c-1.78897,-1.19581 -3.18309,-3.05647 -4.91691,-4.37603c-2.73971,-2.08654 -5.28529,-4.41331 -7.97801,-6.55434c-0.89007,-0.71801 -2.36074,-1.01868 -3.22301,-1.80199c-2.62235,-2.38213 -4.87412,-4.90346 -7.23132,-7.5214c-1.15037,-1.27787 -4.04118,-3.89669 -5.45404,-4.8236c-1.45235,-0.95096 -3.30926,-1.56507 -4.77176,-2.43971c-1.21831,-0.7286 -2.43794,-2.08875 -3.92184,-0.49147c-0.00684,2.69449 5.98412,4.55228 7.76382,5.98147c3.84728,3.09 6.45022,7.1239 9.54596,10.8461c2.85022,3.4275 7.3114,8.24294 9.02449,12.35051c-0.31478,0.55059 -0.68713,1.16404 -0.9986,1.67515c-0.90397,1.56397 -2.28618,2.07221 -3.66551,2.68257c-3.91456,1.73228 -7.72919,0.29074 -11.44147,-1.34868c-0.64059,-0.28301 -2.40684,-1.63478 -3.08647,-1.82713c-4.16118,-1.17618 -8.24757,-3.94081 -11.64221,-6.59184c-2.3689,-1.89574 -5.21294,-6.91257 -5.20853,-10.14772c0.00199,-1.44022 0.55831,-4.08772 0.63441,-5.6636c0.87176,-1.60919 3.35757,-6.3825 5.07154,-7.09566c1.46118,-0.60794 3.44426,-0.47294 4.64779,-1.76493c0.4725,-1.10537 -3.02713,-14.88132 -2.53235,-17.08037c0.16279,-0.72353 -0.20757,-1.25316 -0.78199,-1.70316c-0.37721,-1.33765 -0.48265,-1.38132 -1.37603,-2.45404l0.10721,-0.37787z" fill="#d0c9bc"/><path d="M217.84721,73.25757c1.23397,0.47647 4.04029,1.80816 4.62485,3.00618c0.3375,0.69574 0.13676,0.97897 -0.03971,1.68419c-1.69412,-0.12419 -5.37463,-2.87426 -4.58515,-4.69037z" fill="#d0c9bc"/><path d="M56.60228,111.80272l0.18176,0.06353c0.26537,-0.56691 0.33,-0.70985 0.6975,-1.21015l0.24684,0.68978c-1.36522,5.29368 -2.93382,12.43809 -3.34015,17.94574c-0.92096,12.47691 0.53007,26.92676 4.56419,38.79684c1.76691,5.1986 5.44213,13.42831 8.16088,18.01853c8.75272,14.65015 21.13941,26.79265 35.96096,35.2511c6.20316,3.48309 14.59059,7.02574 21.49191,8.93382c3.61787,1.00147 7.55338,1.75147 11.23434,2.53235c11.26985,1.58162 23.64529,1.79559 34.80485,-0.46985c1.92132,-0.39044 6.77426,-1.23529 8.40706,-1.94118l0.57772,0.49412c-21.66971,5.61838 -43.18301,5.23676 -64.1711,-2.98897c-21.10522,-8.14522 -38.78162,-23.27801 -50.08301,-42.87551c-10.44684,-18.02426 -14.60449,-37.7411 -11.96118,-58.43537c0.61125,-4.78632 1.44485,-10.30456 3.22743,-14.80478z" fill="url(#color-4)"/><path d="M225.56691,76.05904c4.35441,5.03625 8.2125,10.48213 11.51691,16.26132c23.46838,40.93103 12.56029,93.2914 -24.72882,121.99676c-5.73882,4.41772 -26.06206,16.13581 -32.76485,16.59022l-0.57772,-0.49412c31.40757,-9.48529 54.36772,-31.33787 64.97801,-62.41654c6.00882,-17.96294 6.26471,-37.35199 0.73235,-55.46735c-0.66618,-2.15713 -1.86838,-6.12971 -2.80368,-8.04309c-4.32353,-10.26574 -9.50956,-19.75743 -16.89706,-28.18456z" fill="#a8a398"/><path d="M138.0225,43.18875c1.92022,-0.59537 6.79809,-0.82699 9.00728,-0.92449c17.38147,-0.67743 34.63853,3.19368 50.06515,11.23081c9.88566,5.22419 21.15728,14.20456 28.47199,22.56397l-0.54485,0.24265c-8.81074,-10.04824 -19.81963,-17.89103 -31.80816,-23.64728c-1.04294,-0.50074 -2.16684,-1.03941 -3.26978,-1.3789c-16.04669,-7.39743 -34.25515,-9.30221 -51.69618,-7.58846z" fill="url(#color-5)"/><path d="M56.60228,111.80272c11.01463,-37.34625 42.86625,-63.89118 81.42022,-68.61397l0.22544,0.49831c-38.7675,5.33162 -68.8789,30.05603 -80.51956,67.65882l-0.24684,-0.68978c-0.3675,0.50029 -0.43213,0.64324 -0.6975,1.21015z" fill="#4c4743"/><path d="M234.36176,242.85c0.60882,2.65809 1.05882,5.53235 1.81103,8.20588c0.35956,1.27941 0.33309,5.5125 1.22647,6.24265l0.29779,-0.11471c-0.04191,-0.61324 -0.07279,-1.13382 -0.075,-1.74706l0.23824,-0.00221c0.37279,0.9375 0.65735,2.13529 1.34338,2.76618c1.45809,0.40147 4.48015,-3.05735 5.94706,-4.09632c8.03603,-5.68897 14.47279,-13.19559 21.1875,-20.30735c1.09412,-1.15809 1.96985,-3.54485 3.09926,-4.80221c8.64926,-10.25338 12.50956,-22.10868 18.58015,-33.77757c-0.07279,-0.43478 -0.11471,-0.66287 -0.23162,-1.09875c1.38971,-3.33022 3.48309,-8.68301 4.3875,-12.17801c0.63529,-2.3786 1.19338,-4.77728 1.67426,-7.19184c0.35074,-1.74353 1.01029,-6.83382 1.57279,-7.90919c0.81838,1.97074 -2.29191,11.24691 -1.51765,13.50618c0.28676,-0.27397 2.39559,-10.13912 2.61176,-11.39404c0.11029,-0.63706 0.67059,-1.90522 0.73235,-2.48118l0.24706,0.0964c0.23382,1.63324 -1.02353,4.29816 -1.25074,5.90912c-0.62868,4.41309 -1.73162,8.95522 -3.24926,13.14993c-0.41471,1.14662 -0.56691,3.33441 -1.02574,4.30787c-2.24338,4.74551 -3.70368,9.90794 -5.77721,14.68522c-5.06471,11.66713 -11.74191,22.00676 -19.33676,32.17368c-1.41397,1.89926 -3.43456,3.61765 -4.97647,5.39118c-4.06324,4.67206 -7.85074,8.88971 -12.70809,12.81838c-0.90221,1.38088 -9.31103,8.37794 -11.08897,9.74559l-0.09044,-0.06618l1.24632,-1.57059l-0.07941,-0.11912c-3.19412,1.61471 -6.13456,2.21471 -9.06397,4.67426l-0.22721,-0.01765c-1.18456,1.65441 -5.03824,3.375 -6.99926,4.33456c-13.64294,6.66838 -28.47243,12.21176 -43.50154,14.66029c-3.42706,0.55809 -11.73375,2.26324 -14.74346,2.11103l-1.66412,-0.07721c-0.20978,-0.19191 -0.11603,-0.09044 -0.19809,-0.43676c2.85794,-1.32794 4.02794,-0.75662 6.93485,-1.32574c-0.70346,-0.64853 -8.18449,0.99044 -11.09162,0.65515l0.10544,-0.23824c1.09743,-0.00662 1.87831,-0.29779 2.94971,-0.40588c2.39934,-0.24706 4.86485,-0.36618 7.2386,-0.80515c1.65684,-0.30662 3.29449,-0.99706 4.98088,-1.10956c-0.7864,0.41691 -2.72669,0.85809 -3.66993,1.10735l-0.105,0.29118c3.16279,0.29779 9.50757,-1.60809 12.54199,-2.70221c1.3661,-0.49191 3.27618,-1.45588 4.65088,-1.65882c-0.08007,0.19412 -3.0825,1.48897 -3.5486,1.73162l-0.10919,0.44338c3.97103,-0.24926 2.73882,-1.21103 5.64993,-2.15956c3.2111,-1.04559 9.0386,-1.76471 12.10809,-3.08824c1.34824,-0.58235 4.30787,-1.45147 4.91338,-1.90147l-0.06772,-0.21397c-0.92824,0.16324 -2.61044,0.41471 -3.50912,0.26691c1.37603,-0.72794 3.10897,-0.44118 4.43162,-0.94412c5.89721,-2.24779 10.93434,-3.79191 16.43757,-6.96397l0.31103,-0.57794l-0.16985,-0.20294c-2.98676,1.06324 -4.61559,2.29632 -7.30081,3.46103c-1.89176,0.81838 -5.62522,0.86912 -7.52537,2.25221c-0.2625,0.19191 -1.49493,0.51176 -2.02522,0.34412c1.93654,-1.41176 6.66353,-2.41324 9.03971,-3.22721c1.88846,-0.64632 3.59801,-1.66765 5.4139,-2.47941c2.72206,-1.21765 7.55515,-2.18162 9.39926,-4.65c0.89338,-1.19559 -0.62868,-17.25882 -0.87794,-19.89926c-0.09926,-1.06765 -0.90662,-1.72059 -1.61471,-2.46838c0.525,-1.10515 3.71912,-3.43235 4.86618,-3.94632c-0.91324,1.51324 -1.53309,2.85882 -2.95147,3.91324c1.0125,-0.24706 2.40882,-0.75662 3.19632,-0.16324c0.63309,0.47426 0.64412,0.93309 0.99926,1.275z" fill="#7f7365"/><path d="M223.60147,269.21912l0.31103,-0.57794l-0.16985,-0.20294c-2.98676,1.06324 -4.61559,2.29632 -7.30081,3.46103c-1.89176,0.81838 -5.62522,0.86912 -7.52537,2.25221c-0.2625,0.19191 -1.49493,0.51176 -2.02522,0.34412c1.93654,-1.41176 6.66353,-2.41324 9.03971,-3.22721c1.88846,-0.64632 3.59801,-1.66765 5.4139,-2.47941c2.72206,-1.21765 7.55515,-2.18162 9.39926,-4.65c0.89338,-1.19559 -0.62868,-17.25882 -0.87794,-19.89926c-0.09926,-1.06765 -0.90662,-1.72059 -1.61471,-2.46838c0.525,-1.10515 3.71912,-3.43235 4.86618,-3.94632c-0.91324,1.51324 -1.53309,2.85882 -2.95147,3.91324c-0.17426,1.22206 0.48309,5.08235 0.60662,6.53603c0.44118,5.22574 1.25956,10.73162 0.59779,15.95074c-0.50735,0.45 -7.04338,4.65221 -7.76912,4.99412z" fill="#8e8675"/><path d="M229.86618,267.64853c0.31765,-1.18676 6.47647,-3.81397 7.75588,-4.80441c2.74853,-2.12426 5.44191,-3.99706 8.50368,-5.63382c0.96397,-0.51618 2.00515,-1.575 3.04412,-2.20809c-0.90221,1.38088 -9.31103,8.37794 -11.08897,9.74559l-0.09044,-0.06618l1.24632,-1.57059l-0.07941,-0.11912c-3.19412,1.61471 -6.13456,2.21471 -9.06397,4.67426z" fill="#8e8675"/><path d="M19.8696,177.63287c1.74271,0.03 4.31857,-0.10919 5.59224,1.04382c0.25743,0.23294 0.34412,0.33596 0.66176,0.40434l0.13721,-0.49412c1.03147,0.80404 0.2239,1.61603 0.49765,2.99471c0.50471,2.54184 1.32551,4.8289 2.35787,7.19493c-0.76522,1.72654 -1.84699,4.29772 -2.60471,5.85574c-1.77066,1.0114 -7.1066,-1.18059 -6.38539,5.16926l0.11376,0.35846l-0.2256,0.30926l0.27218,0.32713l-0.12018,0.05647c-0.29779,-0.48706 -0.17934,-0.47162 -0.60108,-0.63l-0.05221,0.91412c-0.72309,-1.30059 -6.32883,-19.1839 -6.47107,-20.79353c1.21954,-1.35353 4.84901,-2.48206 6.82756,-2.71059z" fill="#f4eddc"/><path d="M243.35956,37.44088c0.66618,0.20206 1.39632,0.89912 1.92574,1.40051c9.81397,9.28831 18.91324,19.64382 25.41618,31.55625c0.72132,1.32132 1.81985,2.44125 2.40221,3.81066l-0.25588,-0.06529c-0.72794,-0.91478 -1.18897,-2.3025 -2.09338,-2.4825l-0.34632,0.27287c-0.12574,0.79478 -0.13015,0.4939 0.31103,1.33125c0.42132,0.55522 1.3875,1.75235 1.16912,2.43882c-8.74632,-15.01676 -15.62426,-23.96537 -28.23088,-35.83235c0.24265,0.08029 0.63309,0.29735 0.87574,0.42c0.04412,-1.46493 -0.14559,-1.91426 -1.17353,-2.85022z" fill="#d0c9bc"/><path d="M164.62191,288.75441c-0.18176,0.04853 -0.41382,0.11691 -0.59713,0.13235c-15.87596,1.3875 -31.7261,0.11471 -47.20015,-3.66618c-2.05235,-0.50294 -6.3536,-0.80294 -7.89397,-1.96985l0.28147,-0.15662c2.04287,1.09853 3.74294,0.99706 5.9925,1.35221c-1.22779,-0.67721 -5.00956,-1.91029 -6.50713,-2.30735c-0.40125,-0.10588 -0.25941,0.07721 -0.84507,-0.27353l0.14824,-0.22279c1.54478,0.13456 4.47397,1.47353 6.27993,1.9125c11.14721,2.71103 22.66566,3.90441 34.13007,3.43456c1.64603,-0.06838 7.35154,-0.40588 8.49618,0.04632c-2.40353,0.46103 -5.81537,-0.01544 -8.32169,0.18088c-6.51551,0.51397 -13.07559,0.29118 -19.61338,-0.20294l0.05934,0.23162c2.56522,1.16471 21.44934,2.1375 25.33147,1.77574c1.90346,-0.08824 3.80471,-0.16765 5.70706,-0.28235c1.02971,-0.06397 1.97934,-0.60662 2.88816,-0.06176z" fill="#7f7365"/><path d="M203.36096,30.89581c2.95897,0.00618 18.0236,9.89581 20.96846,11.99801c2.32059,1.66897 4.56838,3.435 6.74118,5.29301c10.15809,8.59191 17.6625,17.22463 24.79632,28.39721c0.61765,0.96706 2.63382,3.75926 2.71103,4.70162c-0.54044,-0.22676 -0.71912,-0.75728 -0.98162,-1.29926c-1.125,-2.61662 -6.89118,-10.48831 -8.83676,-12.90441c-0.35294,-0.43809 -4.24632,-2.82154 -4.55735,-3.24882c-0.80074,-1.10316 -5.56985,-6.46412 -5.5875,-7.18257l0.61324,-0.42265l0.01103,-0.22301l-0.47868,-0.38162l-0.57353,0.32404c-0.60882,-0.17404 -0.69926,-0.40853 -1.11618,-0.9386c0.45882,-0.06904 0.44338,-0.05272 0.85147,-0.27022c-0.77868,-0.90199 -2.79265,-2.49728 -3.74118,-3.40809c-0.99044,-0.95162 -0.96176,-1.02265 -1.9875,-0.95449c-0.67059,-0.50537 -0.41691,-0.73654 -0.75882,-1.31162c-0.61765,-1.0489 -2.38676,-2.23015 -3.37059,-2.96868c-7.46691,-5.60404 -16.06699,-11.56941 -24.70301,-15.19985z" fill="#d0c9bc"/><path d="M233.11765,237.825c1.52206,-1.56618 2.20147,-2.35809 4.02574,-3.58015c-0.71691,2.24338 -1.37868,7.21985 -0.41691,9.24926c0.71029,0.60882 1.47353,1.02353 1.72059,1.81103c-0.05515,0.78088 -0.14779,0.87574 -0.50956,1.59706c0.1125,1.44044 0.80956,6.09265 0.23162,7.08088c-0.38162,-1.04118 -1.07647,-4.67426 -0.93529,-5.67574c0.57794,-4.05662 -0.16765,-2.87206 -2.40662,-5.47721l-0.32868,-0.10147l-0.13676,0.12132c-0.35515,-0.34191 -0.36618,-0.80074 -0.99926,-1.275c-0.7875,-0.59338 -2.18382,-0.08382 -3.19632,0.16324c1.41838,-1.05441 2.03824,-2.4 2.95147,-3.91324z" fill="url(#color-6)"/><path d="M39.06397,230.23015c1.56529,0.25147 13.95243,13.01471 13.89574,15.45882c-1.04338,-0.11029 -2.82397,-1.98529 -3.6311,-2.75515c-3.81529,-3.76103 -7.15235,-7.59044 -10.83551,-11.4375c0.585,-0.02206 2.53743,2.49265 3.58566,2.87647l0.04522,-0.47206c-0.50824,-1.12279 -2.16132,-2.77279 -3.06,-3.67059z" fill="#d0c9bc"/><path d="M37.36059,197.59809c1.65309,-0.0161 2.57846,1.74331 2.74346,3.19853c-1.99522,0.82522 -2.4536,1.84368 -3.55544,3.60684c-0.81728,1.30787 -0.64676,0.05272 -2.15713,0.73522c-0.31059,0.29956 -0.67059,0.60728 -0.99618,0.89669c-0.84419,0.10875 -1.17132,0.00772 -1.53,-0.74978l0.18485,-0.48265c2.0314,-1.22272 3.9461,-5.11985 5.31044,-7.20485z" fill="#d0c9bc"/><path d="M77.96801,243.09044c0.21596,-0.04191 0.7264,-0.05956 0.97037,-0.07721l0.20757,0.19853c-0.32294,1.28824 -0.77868,2.87647 -0.93044,4.19118c-0.1586,1.37206 0.70191,8.39338 0.45353,9.20956c-0.28875,-1.93456 -0.52765,-3.675 -0.62228,-5.63603c0.05162,-0.8625 -0.07743,-2.10221 -0.40279,-2.90294c-0.90794,0.54485 -0.27463,3.83162 -0.81397,5.22574l-0.3236,0.09926c-0.28544,-0.65735 0.14581,-2.21471 0.14713,-3.13235c0.00485,-3.22059 -1.73735,-5.025 1.31449,-7.17574z" fill="#d0c9bc"/><path d="M141.84199,292.18015c4.04757,0.09265 7.98596,0.15662 12.01963,0.50515c1.28669,0.1125 2.685,-0.02647 4.07338,0.10588l-0.38184,0.05515c-5.82397,0.18088 -11.65301,0.09706 -17.46949,-0.24706c0.72706,-0.075 1.08728,-0.13015 1.75831,-0.41912z" fill="#7f7365"/></g></svg></svg>